<svg xmlns="http://www.w3.org/2000/svg" viewBox="0 0 199.01 100.34"><defs><style>.cls-1{fill:#05a081;}.cls-2{fill:#393939;}</style></defs><title>Asset 1</title><g id="Layer_2" data-name="Layer 2"><g id="Layer_1-2" data-name="Layer 1"><path id="Path_1" data-name="Path 1" class="cls-1" d="M108.1,54.36c-1-12.52,2.83-23.38,11.19-32.66A46,46,0,0,1,144.56,7.28c1-.21.63-.77.74-1.26.31.05.31.4.53.56a2.62,2.62,0,0,0,2-.34c.13-.22,0-.55.3-.69.14.92.65,1,1.5.89,18.65-2,36.45,6.9,45.07,22.31A38,38,0,0,1,199,40.28c-2.91-4.64-7.32-5.88-12.32-5.18s-8.94,3.17-10.59,8.44c-2.45-3.67-6-5-10.18-4.89a13.19,13.19,0,0,0-10.41,4.75,3.53,3.53,0,0,1-.25.57,11.05,11.05,0,0,0-.6,1.13,11.4,11.4,0,0,0-.73,1.86c-.17.54-.52.62-.83.14a11.1,11.1,0,0,0-1.95-2.1c-.13-.14-.1-.37-.28-.47a11.6,11.6,0,0,0-6.68-2.17,14.37,14.37,0,0,0-8.66,2.38A10.07,10.07,0,0,0,131,51.06a10,10,0,0,0-6.7-4.62c-5.35-1.09-10,.14-13.83,4.22a7.6,7.6,0,0,0-2,4.44C107.9,55.05,108.13,54.65,108.1,54.36Z"/><path id="Path_2" data-name="Path 2" class="cls-2" d="M162.65,87.25a4.65,4.65,0,0,0-.16-1.7Q159.25,65.78,156,46c-.11-.7-.24-1.4-.37-2.1l-.24.34c-.31.2.19.92-.55.87a8.89,8.89,0,0,0-.85,2,5.13,5.13,0,0,0-1.95-2,.43.43,0,0,0,0,.45.44.44,0,0,1,.06.16c2.23,13.67,4.51,27.34,6.74,41a3.19,3.19,0,0,0,.06.87c0-.09-.16-.24,0-.24a.26.26,0,0,0-.13-.25c0,.16,0,.31,0,.48a7.93,7.93,0,0,1-12,7A7.07,7.07,0,0,1,144.79,93a9.36,9.36,0,0,1-2.89,1.88,1.34,1.34,0,0,1-.52.14,11.53,11.53,0,0,0,10.41,4.4,4.88,4.88,0,0,1,1.77-.3,8.29,8.29,0,0,0,2.61-.92c4-2,6.78-6.5,6.5-10.56a1.66,1.66,0,0,1-.19-.69A.59.59,0,0,0,162.65,87.25ZM155.8,46.3a.78.78,0,0,0-.12-.22c.17,0,.12.14.12.22Zm.1.64s0-.11,0-.17q3.26,19.81,6.53,39.64v.14q-3.25-19.8-6.52-39.61Z"/><path id="Path_3" data-name="Path 3" class="cls-2" d="M148.43,6.32a4.8,4.8,0,0,1-3,.49,1.68,1.68,0,0,0-.2-1.26A12.64,12.64,0,0,1,145.3.84c.07-.35.15-.76.57-.83s.62.31.8.62a12.76,12.76,0,0,1,1.54,4.44,1.71,1.71,0,0,0,.22,1.25Z"/><path id="Path_4" data-name="Path 4" class="cls-2" d="M158.89,87l.11.65c-.27-.12-.16-.36-.27-.5q-2-12.1-4-24.21-1.43-8.62-2.84-17.25c0-.27-.07-.54-.1-.81.15,0,.19.14.23.26l.05.35a1,1,0,0,1,.17.54l6.6,40.16A1.59,1.59,0,0,1,158.89,87Z"/><path id="Path_5" data-name="Path 5" class="cls-2" d="M162.66,87.67c-.28-.2-.23-.54-.28-.82q-3.31-20.11-6.61-40.2a1.35,1.35,0,0,1,0-.93c.07.42.12.71.16,1q3.27,19.8,6.52,39.56c.06.33.13.65.2,1Z"/><path id="Path_6" data-name="Path 6" class="cls-2" d="M145.25,5.55a1,1,0,0,1,.2,1.25l-.23-.91Z"/><path id="Path_7" data-name="Path 7" class="cls-2" d="M148.43,6.32a1,1,0,0,1-.2-1.26l.12.31C148.37,5.69,148.4,6,148.43,6.32Z"/><path id="Path_8" data-name="Path 8" class="cls-2" d="M158.89,87q-3.39-20.74-6.8-41.5c.13,0,.25.1.27.26,1.28,8.75,2.84,17.46,4.24,26.19.76,4.7,1.55,9.4,2.31,14.1C159,86.32,159.14,86.64,158.89,87Z"/><path id="Path_9" data-name="Path 9" class="cls-2" d="M5.61,73.81v7.92h12.1V73.81a3.69,3.69,0,0,1,.76-2.55,2.58,2.58,0,0,1,2-.85,2.69,2.69,0,0,1,2.05.84,3.59,3.59,0,0,1,.78,2.56V95.6a3.62,3.62,0,0,1-.79,2.57,2.7,2.7,0,0,1-2,.85,2.56,2.56,0,0,1-2-.86,3.74,3.74,0,0,1-.76-2.56V86.3H5.61v9.3a3.67,3.67,0,0,1-.79,2.57,2.7,2.7,0,0,1-2,.85,2.58,2.58,0,0,1-2-.86A3.77,3.77,0,0,1,0,95.61V73.81a3.77,3.77,0,0,1,.75-2.55,2.55,2.55,0,0,1,2-.84,2.63,2.63,0,0,1,2,.84A3.57,3.57,0,0,1,5.61,73.81Z"/><path id="Path_10" data-name="Path 10" class="cls-2" d="M48.26,88.55a12.09,12.09,0,0,1-.71,4.25,9.54,9.54,0,0,1-2.08,3.34,9.3,9.3,0,0,1-3.24,2.14A11.65,11.65,0,0,1,38,99a11.21,11.21,0,0,1-4.21-.76,9.29,9.29,0,0,1-5.31-5.48,12,12,0,0,1-.71-4.24,12.46,12.46,0,0,1,.72-4.28A9.18,9.18,0,0,1,30.53,81a9,9,0,0,1,3.24-2.13,12.3,12.3,0,0,1,8.46,0A9.19,9.19,0,0,1,45.49,81a9.34,9.34,0,0,1,2.07,3.32A12.25,12.25,0,0,1,48.26,88.55Zm-5.17,0a7.76,7.76,0,0,0-1.38-4.91A4.53,4.53,0,0,0,38,81.89a4.68,4.68,0,0,0-2.66.78A5,5,0,0,0,33.56,85a10.55,10.55,0,0,0,0,7.1,5.14,5.14,0,0,0,1.75,2.31,4.62,4.62,0,0,0,2.69.8,4.51,4.51,0,0,0,3.72-1.77,7.68,7.68,0,0,0,1.37-4.87Z"/><path id="Path_11" data-name="Path 11" class="cls-2" d="M52.32,95.89V73.55A3.5,3.5,0,0,1,53,71.21a2.35,2.35,0,0,1,1.86-.79,2.39,2.39,0,0,1,1.88.78,3.32,3.32,0,0,1,.72,2.35V95.89a3.28,3.28,0,0,1-.73,2.35,2.41,2.41,0,0,1-1.87.78A2.32,2.32,0,0,1,53,98.21,3.5,3.5,0,0,1,52.32,95.89Z"/><path id="Path_12" data-name="Path 12" class="cls-2" d="M65.4,75.68A2.69,2.69,0,0,1,63.56,75a2.56,2.56,0,0,1,0-3.63l0,0a2.69,2.69,0,0,1,1.82-.71,2.76,2.76,0,0,1,1.78.64A2.31,2.31,0,0,1,68,73.14,2.37,2.37,0,0,1,67.21,75,2.63,2.63,0,0,1,65.4,75.68ZM68,81V95.89a3.31,3.31,0,0,1-.74,2.34,2.45,2.45,0,0,1-1.85.8,2.36,2.36,0,0,1-1.86-.82,3.46,3.46,0,0,1-.71-2.32V81.15a3.31,3.31,0,0,1,.71-2.3,2.36,2.36,0,0,1,1.86-.77,2.44,2.44,0,0,1,1.85.77A3,3,0,0,1,68,81Z"/><path id="Path_13" data-name="Path 13" class="cls-2" d="M87.38,96.08v-.51a12.91,12.91,0,0,1-2,1.94,8,8,0,0,1-2.19,1.13,8.63,8.63,0,0,1-2.58.39,7.63,7.63,0,0,1-3.42-.79A8,8,0,0,1,74.42,96a10.25,10.25,0,0,1-1.74-3.4,14.23,14.23,0,0,1-.6-4.25c0-3.22.78-5.73,2.36-7.53a7.82,7.82,0,0,1,6.2-2.7,8.39,8.39,0,0,1,3.76.76,10.47,10.47,0,0,1,3,2.35v-7.6A3.89,3.89,0,0,1,88,71.25a2.14,2.14,0,0,1,1.8-.81,2.2,2.2,0,0,1,1.8.74,3.33,3.33,0,0,1,.62,2.2V96.1a3.17,3.17,0,0,1-.68,2.21,2.42,2.42,0,0,1-3.42,0L88,98.28A3.33,3.33,0,0,1,87.38,96.08ZM77.25,88.51a8.9,8.9,0,0,0,.65,3.57,5,5,0,0,0,1.78,2.22,4.4,4.4,0,0,0,2.48.74,4.52,4.52,0,0,0,2.47-.71,4.86,4.86,0,0,0,1.8-2.16,8.8,8.8,0,0,0,.67-3.65A8.58,8.58,0,0,0,86.43,85a5.38,5.38,0,0,0-1.81-2.27,4.33,4.33,0,0,0-2.5-.78,4.23,4.23,0,0,0-2.53.8A5.2,5.2,0,0,0,77.86,85a9.19,9.19,0,0,0-.61,3.48Z"/><path id="Path_14" data-name="Path 14" class="cls-2" d="M110.45,96.12a16.4,16.4,0,0,1-3.62,2.17,10.25,10.25,0,0,1-3.92.72,7.39,7.39,0,0,1-3.48-.78,5.82,5.82,0,0,1-2.31-2.12,5.65,5.65,0,0,1-.81-2.91,5.18,5.18,0,0,1,1.34-3.6,6.72,6.72,0,0,1,3.69-2l2.44-.51c1.29-.26,2.4-.51,3.33-.73s1.93-.48,3-.8a5.46,5.46,0,0,0-.82-3c-.49-.64-1.49-1-3-1a6.28,6.28,0,0,0-3,.55,4.77,4.77,0,0,0-1.7,1.64,16,16,0,0,1-1,1.44,1.61,1.61,0,0,1-1.25.35,2.23,2.23,0,0,1-1.5-.55,1.81,1.81,0,0,1-.62-1.43,4.38,4.38,0,0,1,1-2.64,6.91,6.91,0,0,1,3-2.11,13.55,13.55,0,0,1,5.08-.83,14.24,14.24,0,0,1,5.34.8,4.93,4.93,0,0,1,2.75,2.54,11.09,11.09,0,0,1,.8,4.6v3.07c0,.84,0,1.78,0,2.81a10.37,10.37,0,0,0,.48,3,9,9,0,0,1,.48,2,1.92,1.92,0,0,1-.74,1.45,2.52,2.52,0,0,1-1.69.65,2.28,2.28,0,0,1-1.57-.75,10.94,10.94,0,0,1-1.67-2.16Zm-.34-7.46a25.07,25.07,0,0,1-3.3.88c-1.44.31-2.44.54-3,.68a4.05,4.05,0,0,0-1.58.85,2.2,2.2,0,0,0-.76,1.76,2.63,2.63,0,0,0,.89,2,3.29,3.29,0,0,0,2.32.82,6,6,0,0,0,2.82-.67,4.47,4.47,0,0,0,1.9-1.73,7.73,7.73,0,0,0,.7-3.85Z"/><path id="Path_15" data-name="Path 15" class="cls-2" d="M134.39,84,125,94.53h10.11a2.63,2.63,0,0,1,1.85.58,1.89,1.89,0,0,1,.62,1.48,1.77,1.77,0,0,1-.62,1.41,2.69,2.69,0,0,1-1.85.55h-14a3.26,3.26,0,0,1-2.2-.64,2.24,2.24,0,0,1-.73-1.75,2.21,2.21,0,0,1,.51-1.33c.34-.45,1-1.28,2.11-2.48S123,90,123.88,89s1.79-2,2.58-2.86,1.44-1.64,2-2.25.94-1.15,1.25-1.59H122a7.78,7.78,0,0,1-2.4-.28c-.54-.19-.81-.69-.81-1.49a1.78,1.78,0,0,1,.62-1.42,2.62,2.62,0,0,1,1.75-.53H133a5.34,5.34,0,0,1,2.52.49,1.78,1.78,0,0,1,.88,1.72,2.27,2.27,0,0,1-.17.86,3,3,0,0,1-.38.73c-.13.19-.32.41-.56.69S134.76,83.61,134.39,84Z"/><path id="Path_16" data-name="Path 16" class="cls-2" d="M161,85.23a1.71,1.71,0,0,0-1.35-.53c-.26,0-.5.69-.67,1.38a6.17,6.17,0,0,1-1.14,6.39,8.15,8.15,0,0,1-4.54,2.94,5.32,5.32,0,0,1-2.8-.09,7.52,7.52,0,0,1-3-1.75l5.57-5.93a7.32,7.32,0,0,0,.52-.8,5.69,5.69,0,0,0,.2-5.1,6.71,6.71,0,0,0-4.4-3.83c-.75,0-1.5-.09-2.25-.14a14.27,14.27,0,0,0-2.54.84,12.5,12.5,0,0,0-2.87,2.31,12.71,12.71,0,0,0-2.56,3.92,9.41,9.41,0,0,0-.69,4.16,10.07,10.07,0,0,0,1.19,4.08,14.21,14.21,0,0,0,2.86,3.72,11.56,11.56,0,0,0,8.18,3.54q4.32-.07,8-4a13.12,13.12,0,0,0,2.4-3.5,10.18,10.18,0,0,0,.93-3.28,7.16,7.16,0,0,0-.19-2.65A3.76,3.76,0,0,0,161,85.23ZM142.3,86.91a4.52,4.52,0,0,1,1.37-3.49,4.65,4.65,0,0,1,3.51-1.55,6.85,6.85,0,0,1,4.18,1.9l-7.12,7.32A7.34,7.34,0,0,1,142.3,86.91Z"/><path id="Path_17" data-name="Path 17" class="cls-2" d="M150.23,82a3.51,3.51,0,0,1,.82,4.56"/><path id="Path_18" data-name="Path 18" class="cls-2" d="M149.89,82.34a3.09,3.09,0,0,1,.74,4,.46.46,0,0,0,.21.62.46.46,0,0,0,.59-.15,4,4,0,0,0-.89-5.13.47.47,0,1,0-.66.66Z"/><path id="Path_19" data-name="Path 19" class="cls-2" d="M151.07,84.81a2.62,2.62,0,0,0,.6-1.11"/><path id="Path_20" data-name="Path 20" class="cls-2" d="M151.39,85.14a3.11,3.11,0,0,0,.72-1.32.5.5,0,0,0-.05-.36.47.47,0,0,0-.27-.21.46.46,0,0,0-.57.32h0a2.65,2.65,0,0,1-.12.37l0-.11a2.84,2.84,0,0,1-.34.58l.07-.1-.13.16a.47.47,0,0,0,0,.66.49.49,0,0,0,.33.13A.46.46,0,0,0,151.39,85.14Z"/><path id="Path_21" data-name="Path 21" class="cls-2" d="M151,82.92a.74.74,0,0,0-.13-.33"/><path id="Path_22" data-name="Path 22" class="cls-2" d="M151.43,82.92a1.13,1.13,0,0,0-.06-.31,1.59,1.59,0,0,0-.12-.27.49.49,0,0,0-.12-.13.35.35,0,0,0-.16-.08.31.31,0,0,0-.19,0,.34.34,0,0,0-.17.05l-.09.08a.37.37,0,0,0-.12.2l0,.12a.46.46,0,0,0,.06.23.54.54,0,0,1,.07.13l0-.12a.61.61,0,0,1,0,.18l0-.12v0a.34.34,0,0,0,0,.18.4.4,0,0,0,.1.15.31.31,0,0,0,.15.1.39.39,0,0,0,.18,0h.13a.82.82,0,0,0,.2-.12l.07-.1a.46.46,0,0,0,.06-.23Z"/><path id="Path_23" data-name="Path 23" class="cls-2" d="M146,90.85l-.27.13"/><path id="Path_24" data-name="Path 24" class="cls-2" d="M145.75,90.45l-.27.13a.37.37,0,0,0-.13.12.35.35,0,0,0-.08.16.28.28,0,0,0,0,.18.41.41,0,0,0,0,.18l.07.1a.56.56,0,0,0,.2.11l.13,0a.46.46,0,0,0,.23-.06l.27-.13a.37.37,0,0,0,.13-.12.35.35,0,0,0,.08-.16.31.31,0,0,0,0-.19.34.34,0,0,0-.05-.17l-.08-.1a.56.56,0,0,0-.2-.12H146a.38.38,0,0,0-.23.06Z"/><path id="Path_25" data-name="Path 25" class="cls-2" d="M145.69,90.4l-.13.1-.48.27a2.53,2.53,0,0,1-.37.18,2,2,0,0,1-.5.11,5.57,5.57,0,0,1-2.41-.49"/><path id="Path_26" data-name="Path 26" class="cls-2" d="M145.36,90.07l-.33.19a3.55,3.55,0,0,1-.43.23,1.75,1.75,0,0,1-.82.1,6.28,6.28,0,0,1-1.86-.47.46.46,0,1,0-.25.88,6.3,6.3,0,0,0,2.25.51,2.66,2.66,0,0,0,1.15-.23c.17-.08.31-.18.49-.27a2,2,0,0,0,.46-.3c.42-.43-.24-1.09-.66-.66Z"/><path id="Path_27" data-name="Path 27" class="cls-2" d="M143.9,91.07a2.46,2.46,0,0,1-.62-.33l-.46-.31"/><path id="Path_28" data-name="Path 28" class="cls-2" d="M144,90.62l-.13-.05.11.05a4.31,4.31,0,0,1-.47-.26l-.48-.31a.47.47,0,0,0-.64.16.49.49,0,0,0,.17.64,5.59,5.59,0,0,0,1.19.67.46.46,0,0,0,.57-.31.48.48,0,0,0-.32-.57Z"/></g></g></svg>