<svg xmlns="http://www.w3.org/2000/svg" viewBox="0 0 643.62 324.79"><defs><style>.cls-1{fill:#05a081;}.cls-2,.cls-3{fill:#fff;}.cls-2{stroke:#fff;stroke-miterlimit:10;}</style></defs><title>Asset 1</title><g id="Layer_2" data-name="Layer 2"><g id="Layer_1-2" data-name="Layer 1"><path class="cls-1" d="M349.84,175.69C346.48,135.23,359,100.12,386,70.14c22-24.49,49.55-39.72,81.67-46.61,3.13-.67,2.06-2.47,2.41-4.07,1,.17,1,1.31,1.7,1.82a8.46,8.46,0,0,0,6.58-1.11c.45-.7.09-1.76,1-2.24.43,3,2.09,3.19,4.86,2.89,60.27-6.55,117.8,22.3,145.65,72.11a122.37,122.37,0,0,1,13.79,37.25c-9.4-15-23.65-19-39.82-16.74s-28.89,10.24-34.21,27.27c-7.93-11.84-19.52-16.06-32.9-15.78s-24.9,4.8-33.64,15.33a11.13,11.13,0,0,1-.8,1.84,28,28,0,0,0-1.93,3.68,32.57,32.57,0,0,0-2.36,6c-.55,1.75-1.68,2-2.69.44-1.69-2.67-4.06-4.66-6.31-6.78-.42-.44-.31-1.18-.89-1.52-6.4-4.81-13.78-6.65-21.61-7a46.46,46.46,0,0,0-28,7.69c-7.3,4.79-12.42,11.25-14.61,20.42a32.18,32.18,0,0,0-21.66-14.92c-17.28-3.52-32.48.45-44.69,13.63a24.76,24.76,0,0,0-6.57,14.36C349.19,177.92,349.93,176.62,349.84,175.69Z"/><path class="cls-2" d="M526.13,282c.36-1.88-.19-3.69-.49-5.5q-10.49-63.88-21-127.77c-.37-2.27-.79-4.53-1.2-6.79-.26.36-.53.72-.79,1.09-1,.67.63,3-1.78,2.82-1.48,1.82-1.7,4.23-2.74,6.41-1.88-2.62-3.41-5.21-6.31-6.47a1.36,1.36,0,0,0,.12,1.45,3,3,0,0,1,.18.5c7.22,44.2,14.57,88.37,21.77,132.58a11.8,11.8,0,0,0,.19,2.81c-.07-.27-.49-.78-.14-.76a.82.82,0,0,0-.44-.81c0,.52-.12,1-.12,1.56.06,10-4.09,17.87-12.74,22.91s-17.36,4.8-26-.16a23.61,23.61,0,0,1-6.21-5.2c-2.15,2.76-6.59,4.58-9.34,6.06a4.12,4.12,0,0,1-1.69.47c8.13,10.16,21.55,16.19,33.64,14.2a16,16,0,0,1,5.74-.95,26.56,26.56,0,0,0,8.43-3c13-6.4,21.91-21,21-34.12a5.17,5.17,0,0,1-.61-2.23A1.89,1.89,0,0,0,526.13,282ZM504,149.64a2.28,2.28,0,0,0-.38-.72C504.18,148.93,504,149.38,504,149.64Zm.32,2.08c0-.18-.05-.36-.07-.55q10.54,64.05,21.1,128.1c0,.15,0,.3,0,.46Q514.84,215.73,504.3,151.72Z"/><path class="cls-3" d="M480.19,20.42A15.25,15.25,0,0,1,470.56,22a5.38,5.38,0,0,0-.66-4.07,41.21,41.21,0,0,1,.15-15.22c.22-1.13.5-2.46,1.84-2.68s2,1,2.6,2a41.35,41.35,0,0,1,5,14.37A5.39,5.39,0,0,0,480.19,20.42Z"/><path class="cls-2" d="M514,281.06l.35,2.1c-.89-.38-.53-1.17-.89-1.61Q507,242.42,500.58,203.3q-4.6-27.88-9.17-55.76c-.14-.87-.23-1.75-.34-2.62.48.09.62.47.74.86l.16,1.14a2.93,2.93,0,0,1,.55,1.74q10.65,64.89,21.33,129.79A5,5,0,0,1,514,281.06Z"/><path class="cls-2" d="M526.19,283.36c-.92-.67-.76-1.74-.91-2.66q-10.71-65-21.37-129.93a4.19,4.19,0,0,1,0-3c.22,1.36.37,2.3.53,3.24Q515,215,525.51,278.87c.17,1.05.41,2.08.62,3.12Z"/><path class="cls-3" d="M469.9,17.93a3.12,3.12,0,0,1,.66,4.07l-.72-2.95Z"/><path class="cls-3" d="M480.19,20.42a3.11,3.11,0,0,1-.67-4.07c.13.34.27.69.41,1C480,18.4,480.1,19.41,480.19,20.42Z"/><path class="cls-2" d="M514,281.06Q503,214,492,146.92c.44.14.83.32.9.85,4.13,28.28,9.17,56.41,13.7,84.63,2.44,15.21,5,30.39,7.47,45.59C514.2,279,514.79,280,514,281.06Z"/><path class="cls-2" d="M18.61,238.56v25.62h39.1V238.56q0-5.49,2.47-8.23a8.31,8.31,0,0,1,6.49-2.74,8.62,8.62,0,0,1,6.62,2.71q2.53,2.72,2.53,8.26V309q0,5.55-2.56,8.29a8.61,8.61,0,0,1-6.59,2.75,8.24,8.24,0,0,1-6.52-2.78q-2.44-2.77-2.44-8.26V278.94H18.61V309q0,5.55-2.56,8.29a8.6,8.6,0,0,1-6.58,2.75,8.26,8.26,0,0,1-6.53-2.78Q.5,314.5.5,309V238.56q0-5.49,2.41-8.23a8.26,8.26,0,0,1,6.56-2.74,8.6,8.6,0,0,1,6.61,2.71Q18.62,233,18.61,238.56Z"/><path class="cls-2" d="M156.45,286.2a39.47,39.47,0,0,1-2.31,13.72,30.35,30.35,0,0,1-6.71,10.8,29.73,29.73,0,0,1-10.49,6.92,37.24,37.24,0,0,1-13.73,2.41,36.18,36.18,0,0,1-13.6-2.44,30.06,30.06,0,0,1-17.17-17.72,39.36,39.36,0,0,1-2.28-13.69,39.89,39.89,0,0,1,2.31-13.85,30.37,30.37,0,0,1,6.65-10.73,29.28,29.28,0,0,1,10.49-6.86,39.71,39.71,0,0,1,27.33,0,29.82,29.82,0,0,1,10.55,7,30.15,30.15,0,0,1,6.68,10.73A39.67,39.67,0,0,1,156.45,286.2Zm-16.71,0q0-10.18-4.48-15.86a14.57,14.57,0,0,0-12-5.67,14.91,14.91,0,0,0-8.6,2.53,16,16,0,0,0-5.73,7.47,33.94,33.94,0,0,0,0,22.93,16.26,16.26,0,0,0,5.67,7.47,14.73,14.73,0,0,0,8.69,2.6,14.53,14.53,0,0,0,12-5.71Q139.75,296.26,139.74,286.2Z"/><path class="cls-2" d="M169.57,309.92V237.71c0-3.33.74-5.86,2.22-7.56a7.56,7.56,0,0,1,6-2.56,7.88,7.88,0,0,1,6.1,2.53c1.54,1.68,2.32,4.22,2.32,7.59v72.21c0,3.38-.79,5.91-2.35,7.6a7.94,7.94,0,0,1-6.07,2.53,7.56,7.56,0,0,1-6-2.62Q169.57,314.81,169.57,309.92Z"/><path class="cls-2" d="M211.83,244.6a8.78,8.78,0,0,1-5.94-2.13A8.29,8.29,0,0,1,206,230.6a8.51,8.51,0,0,1,5.88-2.28,8.75,8.75,0,0,1,5.74,2.07,7.42,7.42,0,0,1,2.5,6,7.65,7.65,0,0,1-2.44,6A8.47,8.47,0,0,1,211.83,244.6Zm8.24,17.2v48.12c0,3.34-.8,5.86-2.38,7.57a7.92,7.92,0,0,1-6,2.56,7.56,7.56,0,0,1-6-2.62q-2.28-2.62-2.28-7.51V262.29q0-4.94,2.28-7.44a7.69,7.69,0,0,1,6-2.5,8,8,0,0,1,6,2.5A9.7,9.7,0,0,1,220.07,261.8Z"/><path class="cls-2" d="M282.89,310.53v-1.64a42.52,42.52,0,0,1-6.62,6.25,25.3,25.3,0,0,1-7.07,3.66,26.75,26.75,0,0,1-8.33,1.25,24.62,24.62,0,0,1-11.07-2.53,25.92,25.92,0,0,1-8.81-7.23,32.92,32.92,0,0,1-5.64-11,46.81,46.81,0,0,1-1.93-13.72q0-15.61,7.63-24.34t20.06-8.72a26.91,26.91,0,0,1,12.14,2.47,34,34,0,0,1,9.64,7.59V238q0-5.12,2-7.74a6.94,6.94,0,0,1,5.83-2.62,7.22,7.22,0,0,1,5.82,2.4q2,2.41,2,7.11v73.43q0,4.75-2.19,7.14a7.82,7.82,0,0,1-11.32-.09Q282.89,315.11,282.89,310.53Zm-32.75-24.45a28.43,28.43,0,0,0,2.1,11.52,16.07,16.07,0,0,0,5.76,7.17,14.23,14.23,0,0,0,8,2.41,14.69,14.69,0,0,0,8-2.29,15.74,15.74,0,0,0,5.8-7,28.4,28.4,0,0,0,2.16-11.8,27.64,27.64,0,0,0-2.16-11.44,17.27,17.27,0,0,0-5.86-7.32,14,14,0,0,0-8.08-2.53,13.61,13.61,0,0,0-8.17,2.59,16.64,16.64,0,0,0-5.58,7.44A29.63,29.63,0,0,0,250.14,286.08Z"/><path class="cls-2" d="M357.42,310.66a51.86,51.86,0,0,1-11.68,7,32.75,32.75,0,0,1-12.66,2.35,24.07,24.07,0,0,1-11.25-2.53,18.61,18.61,0,0,1-7.47-6.86,17.81,17.81,0,0,1-2.62-9.4,16.82,16.82,0,0,1,4.33-11.65A21.65,21.65,0,0,1,328,283.15q1.59-.37,7.87-1.65t10.76-2.35q4.49-1.06,9.73-2.59-.3-6.58-2.65-9.67t-9.73-3.08q-6.35,0-9.54,1.77a15.42,15.42,0,0,0-5.49,5.31,56.14,56.14,0,0,1-3.24,4.66c-.63.76-2,1.13-4.05,1.13a7.09,7.09,0,0,1-4.85-1.8,5.86,5.86,0,0,1-2-4.6,14.05,14.05,0,0,1,3.11-8.54q3.11-4.14,9.69-6.83t16.41-2.68q11,0,17.26,2.59a16.06,16.06,0,0,1,8.88,8.2q2.58,5.61,2.59,14.88,0,5.87,0,9.94t-.09,9.09a33.35,33.35,0,0,0,1.55,9.79,30.84,30.84,0,0,1,1.56,6.56,6.14,6.14,0,0,1-2.41,4.66,8.06,8.06,0,0,1-5.46,2.11,7.37,7.37,0,0,1-5.06-2.41A36,36,0,0,1,357.42,310.66Zm-1.1-24.1a83.65,83.65,0,0,1-10.64,2.84q-7,1.5-9.67,2.19a13.17,13.17,0,0,0-5.12,2.75,7,7,0,0,0-2.44,5.7,8.43,8.43,0,0,0,2.87,6.44,10.59,10.59,0,0,0,7.5,2.65,19.59,19.59,0,0,0,9.12-2.16,14.57,14.57,0,0,0,6.13-5.59q2.25-3.78,2.25-12.44Z"/><path class="cls-2" d="M434.82,271.44l-30.5,34.09H437c2.64,0,4.64.62,6,1.86a6.24,6.24,0,0,1,2,4.79,5.83,5.83,0,0,1-2,4.57q-2,1.77-6,1.77H391.82q-4.76,0-7.11-2.07a7.19,7.19,0,0,1-2.35-5.67,7.07,7.07,0,0,1,1.65-4.3q1.65-2.18,6.83-8,5.49-6.11,10-11t8.33-9.24q3.84-4.31,6.37-7.29t4.06-5.12H394.81a24.87,24.87,0,0,1-7.75-.92c-1.75-.61-2.62-2.21-2.62-4.82a5.73,5.73,0,0,1,2-4.57,8.37,8.37,0,0,1,5.64-1.71H430.3q5.31,0,8.15,1.56t2.83,5.58a7.63,7.63,0,0,1-.55,2.77,9.68,9.68,0,0,1-1.22,2.35c-.44.61-1.05,1.35-1.83,2.23S436,270.22,434.82,271.44Z"/><path class="cls-2" d="M520.78,275.46a5.5,5.5,0,0,0-4.35-1.7c-.84.08-1.62,2.22-2.18,4.46,3,6.88,1.24,14.59-3.7,20.65-3.64,4.46-9,8.5-14.66,9.5a17.43,17.43,0,0,1-9.06-.3,24.22,24.22,0,0,1-9.68-5.65l18-19.16a27.83,27.83,0,0,0,1.68-2.58,18.4,18.4,0,0,0,.66-16.5c-3-6.91-8.1-10.36-14.2-12.37-2.43-.11-4.86-.28-7.29-.45a47.35,47.35,0,0,0-8.19,2.71,39.77,39.77,0,0,0-9.28,7.47,40.75,40.75,0,0,0-8.29,12.68A30.53,30.53,0,0,0,448,287.66a33.13,33.13,0,0,0,3.85,13.19,45.16,45.16,0,0,0,9.27,12q12.5,11.71,26.43,11.45t25.93-13A42.19,42.19,0,0,0,521.26,300a33.06,33.06,0,0,0,3-10.59,23,23,0,0,0-.63-8.58A11.84,11.84,0,0,0,520.78,275.46Zm-60.4,5.42a14.57,14.57,0,0,1,4.42-11.27,15,15,0,0,1,11.33-5q6.38.11,13.52,6.13l-23,23.64Q460.7,287.29,460.38,280.88Z"/><path class="cls-3" d="M486,265.07a11.34,11.34,0,0,1,2.64,14.74"/><path class="cls-3" d="M484.89,266.13a10,10,0,0,1,2.41,12.93,1.5,1.5,0,0,0,2.59,1.51A13,13,0,0,0,487,264a1.53,1.53,0,0,0-2.12,0,1.51,1.51,0,0,0,0,2.12Z"/><path class="cls-3" d="M488.71,274.11a8.33,8.33,0,0,0,1.93-3.59"/><path class="cls-3" d="M489.77,275.17a10,10,0,0,0,2.31-4.25,1.56,1.56,0,0,0-.15-1.16,1.53,1.53,0,0,0-.89-.69,1.5,1.5,0,0,0-1.85,1.05,8.44,8.44,0,0,1-.4,1.2l.15-.36a8.61,8.61,0,0,1-1.09,1.88l.23-.3-.43.51a1.5,1.5,0,0,0,0,2.12,1.56,1.56,0,0,0,1.06.44,1.52,1.52,0,0,0,1.06-.44Z"/><path class="cls-3" d="M488.38,268a2.35,2.35,0,0,0-.39-1.08"/><path class="cls-3" d="M489.88,268a3.88,3.88,0,0,0-.18-1,4.14,4.14,0,0,0-.41-.88,1.31,1.31,0,0,0-.39-.42,1.14,1.14,0,0,0-.51-.27,1.11,1.11,0,0,0-.6,0,1.14,1.14,0,0,0-.56.17l-.3.24a1.57,1.57,0,0,0-.38.66l-.06.4a1.48,1.48,0,0,0,.21.76,2.42,2.42,0,0,1,.21.39l-.15-.36a2.38,2.38,0,0,1,.16.58l-.06-.4s0,.07,0,.11a1.06,1.06,0,0,0,.13.58,1.08,1.08,0,0,0,.31.48,1,1,0,0,0,.48.31,1.06,1.06,0,0,0,.58.13l.4-.05a1.49,1.49,0,0,0,.66-.39l.23-.3a1.48,1.48,0,0,0,.21-.76Z"/><path class="cls-3" d="M472.28,293.63l-.87.43"/><path class="cls-3" d="M471.53,292.34l-.88.42a1.12,1.12,0,0,0-.42.39,1.14,1.14,0,0,0-.27.51,1.08,1.08,0,0,0,0,.59,1.12,1.12,0,0,0,.18.56l.23.31a1.57,1.57,0,0,0,.66.38l.4.06a1.58,1.58,0,0,0,.76-.21l.87-.42a1.06,1.06,0,0,0,.42-.39,1.14,1.14,0,0,0,.27-.51,1.22,1.22,0,0,0,0-.6,1.09,1.09,0,0,0-.18-.55l-.24-.31a1.45,1.45,0,0,0-.66-.38l-.4-.06a1.42,1.42,0,0,0-.75.21Z"/><path class="cls-3" d="M471.32,292.16a1.14,1.14,0,0,1-.41.31l-1.56.89a9.09,9.09,0,0,1-1.17.58,6.07,6.07,0,0,1-1.63.34,18,18,0,0,1-7.82-1.56"/><path class="cls-3" d="M470.26,291.1a9.46,9.46,0,0,1-1.08.63,15,15,0,0,1-1.36.74,6.1,6.1,0,0,1-2.68.33,19.83,19.83,0,0,1-6-1.52,1.52,1.52,0,0,0-1.85,1,1.54,1.54,0,0,0,1.05,1.85,20.79,20.79,0,0,0,7.28,1.64,8.22,8.22,0,0,0,3.72-.75c.54-.25,1-.56,1.56-.85a6.24,6.24,0,0,0,1.49-1c1.36-1.37-.76-3.5-2.12-2.12Z"/><path class="cls-3" d="M465.53,294.33a8.14,8.14,0,0,1-2-1.05l-1.49-1"/><path class="cls-3" d="M465.93,292.88l-.42-.15.36.15a9.39,9.39,0,0,1-1.51-.85l-1.57-1a1.5,1.5,0,0,0-2.05.54,1.54,1.54,0,0,0,.54,2.05,16.67,16.67,0,0,0,3.85,2.18,1.53,1.53,0,0,0,1.85-1,1.55,1.55,0,0,0-1.05-1.85Z"/></g></g></svg>